PathFileType	4	(X/Y/Z)	OpenSim_Sub01_EMGStiffKnee_Magnet.trc
DataRate	CameraRate	NumFrames	NumMarkers	Units	OrigDataRate	OrigDataStartFrame	OrigNumFrames
100	100	30	8	m	100	4872	5567
Frame#	Time	torso_imu_offset_imu	pelvis_imu_offset_imu	tibia_r_imu_offset_imu	femur_r_imu_offset_imu	tibia_l_imu_offset_imu	femur_l_imu_offset_imu	toes_r_imu_offset_imu	toes_l_imu_offset_imu
				X1	Y1	Z1	X2	Y2	Z2	X3	Y3	Z3	X4	Y4	Z4	X5	Y5	Z5	X6	Y6	Z6	X7	Y7	Z7	X8		Y8	Z8	

4872	48.71000000	-0.92791710	-0.07505050	0.06688671	-0.68495651	0.04855903	-0.64354824	-0.60170100	-0.51135233	0.06792946	-0.70678453	-0.39317417	0.14398055	-0.31590047	0.75118775	0.12888451	-0.40161900	0.13114695	0.34113798	-0.72004656	-0.07706798	-0.34686760	-0.78766293	-0.17086106	-0.06484303
4873	48.72000000	-0.92914365	-0.07294884	0.06798281	-0.68516201	0.04200392	-0.64429149	-0.59846870	-0.51320846	0.06838824	-0.70188378	-0.40171204	0.14534541	-0.33213330	0.74517010	0.12478770	-0.40067145	0.13308890	0.34507234	-0.72205396	-0.07765023	-0.34214798	-0.78535583	-0.17240895	-0.08856564
4874	48.73000000	-0.93121247	-0.07224450	0.06749191	-0.68675641	0.03256762	-0.64385387	-0.59577400	-0.51630667	0.06495316	-0.69843048	-0.41085358	0.14182184	-0.34901152	0.73614308	0.12274969	-0.40072992	0.13690425	0.34682618	-0.72311846	-0.07762326	-0.33942351	-0.78199883	-0.17080106	-0.11586413
4875	48.74000000	-0.93269866	-0.07169255	0.06745964	-0.68864767	0.02216478	-0.64327724	-0.59354580	-0.52077545	0.06242666	-0.69520977	-0.42010512	0.13642791	-0.36593649	0.72634503	0.12174065	-0.40175572	0.14070620	0.34745602	-0.72308912	-0.07736847	-0.33833230	-0.77758763	-0.16644527	-0.14386190
4876	48.75000000	-0.93278509	-0.07038067	0.06931554	-0.68990639	0.01233117	-0.64317214	-0.59147470	-0.52648193	0.06383688	-0.69125562	-0.42896546	0.13157795	-0.38256505	0.71735447	0.12065118	-0.40391251	0.14310547	0.34795248	-0.72210212	-0.07721270	-0.33834510	-0.77253573	-0.16009299	-0.17029869
4877	48.76000000	-0.93251456	-0.06847431	0.07251900	-0.69017099	0.00334600	-0.64278917	-0.58856456	-0.53258113	0.06665661	-0.68646438	-0.43690182	0.12759020	-0.39922860	0.70866719	0.11827961	-0.40800973	0.14428995	0.34894606	-0.72110388	-0.07728218	-0.33850547	-0.76849235	-0.15344484	-0.19482529
4878	48.77000000	-0.93317058	-0.06634542	0.07618515	-0.68924445	-0.00476207	-0.64124560	-0.58381626	-0.53815023	0.06754856	-0.68093381	-0.44343619	0.12439338	-0.41632510	0.69944829	0.11351354	-0.41481772	0.14466459	0.35092325	-0.72108941	-0.07766278	-0.33783310	-0.76716946	-0.14827011	-0.21739097
4879	48.78000000	-0.93449356	-0.06447442	0.07972875	-0.68782115	-0.01223723	-0.63942531	-0.57808570	-0.54307193	0.06642269	-0.67538958	-0.44899756	0.12188631	-0.43338165	0.68967631	0.10683141	-0.42273532	0.14351924	0.35321239	-0.72153876	-0.07839186	-0.33617255	-0.76779860	-0.14473889	-0.23712437
4880	48.79000000	-0.93503642	-0.06342478	0.08279543	-0.68728108	-0.01953361	-0.63957128	-0.57365614	-0.54784873	0.06568813	-0.67104019	-0.45471280	0.11994483	-0.44925535	0.67995588	0.09993607	-0.42833706	0.13928600	0.35425063	-0.72076649	-0.07946941	-0.33400334	-0.76770251	-0.14179065	-0.25252326
4881	48.80000000	-0.93388199	-0.06322131	0.08529059	-0.68823724	-0.02698602	-0.64280323	-0.57193948	-0.55266220	0.06698818	-0.66840688	-0.46128433	0.11857695	-0.46322203	0.67077042	0.09419868	-0.42985798	0.13132271	0.35292024	-0.71798675	-0.08089653	-0.33185441	-0.76488900	-0.13891912	-0.26318859
4882	48.81000000	-0.93177853	-0.06228184	0.08787394	-0.68897115	-0.03455865	-0.64679927	-0.57164944	-0.55669291	0.06949971	-0.66593179	-0.46809997	0.11818504	-0.47585299	0.66219523	0.08991125	-0.43060659	0.12180361	0.34949433	-0.71517593	-0.08268056	-0.33035284	-0.75954758	-0.13735909	-0.27204766
4883	48.82000000	-0.92976683	-0.05887286	0.09129440	-0.68749777	-0.04212240	-0.64879853	-0.57103955	-0.55903771	0.07195984	-0.66180958	-0.47432947	0.11919704	-0.48791564	0.65417745	0.08721548	-0.43456807	0.11328943	0.34449857	-0.71463767	-0.08482511	-0.33006388	-0.75231993	-0.13851752	-0.28246482
4884	48.83000000	-0.92865767	-0.05344248	0.09554854	-0.68429274	-0.04917738	-0.64899237	-0.56894226	-0.56031070	0.07334958	-0.65628301	-0.47951649	0.12133302	-0.49952755	0.64587530	0.08698861	-0.44181759	0.10633333	0.33839000	-0.71593128	-0.08726126	-0.33035625	-0.74457832	-0.14156103	-0.29514237
4885	48.84000000	-0.92908435	-0.04811780	0.10005379	-0.68172526	-0.05493852	-0.64984391	-0.56463625	-0.56229340	0.07283818	-0.65117113	-0.48349278	0.12376822	-0.51030638	0.63584033	0.09067325	-0.44942098	0.09994330	0.33157287	-0.71650425	-0.08986404	-0.32967807	-0.73825656	-0.14393268	-0.30873358
4886	48.85000000	-0.93111945	-0.04451481	0.10419893	-0.68125806	-0.05895336	-0.65273485	-0.55817723	-0.56609374	0.07025747	-0.64778455	-0.48644405	0.12588519	-0.52026020	0.62346116	0.09850832	-0.45524511	0.09346688	0.32442637	-0.71483932	-0.09229216	-0.32720382	-0.73419819	-0.14444489	-0.32220948
4887	48.86000000	-0.93318298	-0.04260260	0.10733194	-0.68151566	-0.06177957	-0.65565990	-0.55189568	-0.57072891	0.06739371	-0.64580274	-0.48958593	0.12772408	-0.53059534	0.61066006	0.10711292	-0.45976696	0.08737863	0.31725932	-0.71265665	-0.09356576	-0.32433645	-0.72996412	-0.14611075	-0.33564170
4888	48.87000000	-0.93352052	-0.04200099	0.10889973	-0.68071110	-0.06411688	-0.65617800	-0.54837347	-0.57489270	0.06625029	-0.64458109	-0.49419863	0.12939032	-0.54262849	0.59963915	0.11267135	-0.46391214	0.08230611	0.31039424	-0.71216072	-0.09273848	-0.32276616	-0.72272325	-0.15240150	-0.34921178
4889	48.88000000	-0.93233932	-0.04166016	0.10994259	-0.67875187	-0.06599586	-0.65469845	-0.54766039	-0.57822360	0.06667337	-0.64313815	-0.49968007	0.13014704	-0.55601310	0.58977859	0.11487564	-0.46809850	0.07804805	0.30455378	-0.71384687	-0.09113175	-0.32231542	-0.71285983	-0.16202366	-0.36170034
4890	48.89000000	-0.93135619	-0.04001529	0.11272641	-0.67684956	-0.06693217	-0.65382394	-0.54785722	-0.58108735	0.06684890	-0.64023380	-0.50398001	0.12860965	-0.56912260	0.57828699	0.11611767	-0.47235296	0.07376525	0.30076810	-0.71689470	-0.09181163	-0.32136947	-0.70323267	-0.17001699	-0.37081077
4891	48.90000000	-0.93161059	-0.03618849	0.11827237	-0.67583126	-0.06664796	-0.65522259	-0.54725567	-0.58393269	0.06556568	-0.63547493	-0.50609712	0.12426949	-0.58082201	0.56342418	0.11825542	-0.47664817	0.06865074	0.29946279	-0.72042545	-0.09641137	-0.31895583	-0.69590552	-0.17294861	-0.37579642
4892	48.91000000	-0.93201393	-0.03138224	0.12380943	-0.67528188	-0.06551842	-0.65761780	-0.54486368	-0.58739925	0.06353069	-0.63100494	-0.50825746	0.11927023	-0.59153476	0.54673961	0.12135410	-0.48082526	0.06204216	0.29924341	-0.72348755	-0.10217334	-0.31612040	-0.69039054	-0.17220415	-0.38059855
4893	48.92000000	-0.93118644	-0.02713703	0.12607358	-0.67459077	-0.06404916	-0.65929233	-0.53993516	-0.59208741	0.06177246	-0.62920999	-0.51308373	0.11608548	-0.60194463	0.53031432	0.12512367	-0.48473007	0.05338834	0.29846086	-0.72519555	-0.10571771	-0.31417741	-0.68571800	-0.17004161	-0.38967878
4894	48.93000000	-0.92927837	-0.02429595	0.12491531	-0.67365755	-0.06289079	-0.66008232	-0.53342310	-0.59748219	0.06082465	-0.62909143	-0.52020505	0.11478851	-0.61231902	0.51508336	0.12891760	-0.48864215	0.04340213	0.29669003	-0.72585509	-0.10650146	-0.31287219	-0.68076665	-0.16844203	-0.40231643
4895	48.94000000	-0.92761747	-0.02316498	0.12258238	-0.67277446	-0.06280514	-0.66101935	-0.52758787	-0.60221048	0.06083966	-0.62704626	-0.52694664	0.11360539	-0.62260475	0.50109940	0.13181533	-0.49317461	0.03376865	0.29444804	-0.72668832	-0.10616520	-0.31074281	-0.67429903	-0.16917251	-0.41380294
4896	48.95000000	-0.92713406	-0.02371455	0.12092473	-0.67207260	-0.06397419	-0.66276640	-0.52401431	-0.60552451	0.06158793	-0.62112431	-0.53135709	0.11150418	-0.63260938	0.48810994	0.13341452	-0.49850909	0.02521381	0.29228837	-0.72841920	-0.10618947	-0.30690839	-0.66568472	-0.17303534	-0.42126347
4897	48.96000000	-0.92748736	-0.02495901	0.12042716	-0.67117414	-0.06484855	-0.66479986	-0.52218001	-0.60860029	0.06173407	-0.61448565	-0.53381050	0.10979883	-0.64175124	0.47502322	0.13487353	-0.50351975	0.01553907	0.29080050	-0.73022143	-0.10741222	-0.30230692	-0.65610580	-0.17798242	-0.42757678
4898	48.97000000	-0.92812938	-0.02578618	0.12128484	-0.66965425	-0.06369554	-0.66641148	-0.52115664	-0.61286224	0.05985164	-0.61100305	-0.53512873	0.11008253	-0.64943917	0.46069083	0.13754053	-0.50690415	0.00225439	0.29051458	-0.73104976	-0.11047348	-0.29812481	-0.64704344	-0.18156526	-0.43646286
4899	48.98000000	-0.92892709	-0.02583464	0.12313638	-0.66779262	-0.06083035	-0.66741331	-0.51977127	-0.61812933	0.05621118	-0.61107624	-0.53640030	0.11163736	-0.65601666	0.44543798	0.14128560	-0.50833481	-0.01340099	0.29097301	-0.73087197	-0.11482878	-0.29423378	-0.63943913	-0.18323075	-0.44831234
4900	48.99000000	-0.93006672	-0.02532093	0.12519211	-0.66641108	-0.05814407	-0.66801788	-0.51666317	-0.62298527	0.05238936	-0.61243164	-0.53891846	0.11196723	-0.66254634	0.43072413	0.14484128	-0.50823492	-0.02731820	0.29095810	-0.73043557	-0.11902204	-0.28949401	-0.63381856	-0.18388470	-0.46095308
4901	49	-0.93146806	-0.02447762	0.12692568	-0.66604354	-0.05692320	-0.66836569	-0.51114249	-0.62670578	0.04969648	-0.61297878	-0.54323826	0.10983586	-0.66963868	0.41776608	0.14721643	-0.50731639	-0.03676424	0.28947369	-0.73046531	-0.12184845	-0.28339517	-0.63016455	-0.18437007	-0.47244387
